<?xml version="1.0" standalone="no"?>
<!DOCTYPE svg PUBLIC "-//W3C//DTD SVG 1.1//EN" "http://www.w3.org/Graphics/SVG/1.1/DTD/svg11.dtd">
<svg width="407" height="407" version="1.1" xmlns="http://www.w3.org/2000/svg">
<rect x="0" y="0" width="407" height="407" style="fill:rgb(255,255,255);" />
<rect x="0" y="0" width="11" height="11" style="fill:rgb(0,0,0);" />
<rect x="11" y="0" width="11" height="11" style="fill:rgb(0,0,0);" />
<rect x="22" y="0" width="11" height="11" style="fill:rgb(0,0,0);" />
<rect x="33" y="0" width="11" height="11" style="fill:rgb(0,0,0);" />
<rect x="44" y="0" width="11" height="11" style="fill:rgb(0,0,0);" />
<rect x="55" y="0" width="11" height="11" style="fill:rgb(0,0,0);" />
<rect x="66" y="0" width="11" height="11" style="fill:rgb(0,0,0);" />
<rect x="88" y="0" width="11" height="11" style="fill:rgb(0,0,0);" />
<rect x="110" y="0" width="11" height="11" style="fill:rgb(0,0,0);" />
<rect x="121" y="0" width="11" height="11" style="fill:rgb(0,0,0);" />
<rect x="143" y="0" width="11" height="11" style="fill:rgb(0,0,0);" />
<rect x="154" y="0" width="11" height="11" style="fill:rgb(0,0,0);" />
<rect x="165" y="0" width="11" height="11" style="fill:rgb(0,0,0);" />
<rect x="187" y="0" width="11" height="11" style="fill:rgb(0,0,0);" />
<rect x="209" y="0" width="11" height="11" style="fill:rgb(0,0,0);" />
<rect x="220" y="0" width="11" height="11" style="fill:rgb(0,0,0);" />
<rect x="330" y="0" width="11" height="11" style="fill:rgb(0,0,0);" />
<rect x="341" y="0" width="11" height="11" style="fill:rgb(0,0,0);" />
<rect x="352" y="0" width="11" height="11" style="fill:rgb(0,0,0);" />
<rect x="363" y="0" width="11" height="11" style="fill:rgb(0,0,0);" />
<rect x="374" y="0" width="11" height="11" style="fill:rgb(0,0,0);" />
<rect x="385" y="0" width="11" height="11" style="fill:rgb(0,0,0);" />
<rect x="396" y="0" width="11" height="11" style="fill:rgb(0,0,0);" />
<rect x="0" y="11" width="11" height="11" style="fill:rgb(0,0,0);" />
<rect x="66" y="11" width="11" height="11" style="fill:rgb(0,0,0);" />
<rect x="99" y="11" width="11" height="11" style="fill:rgb(0,0,0);" />
<rect x="110" y="11" width="11" height="11" style="fill:rgb(0,0,0);" />
<rect x="132" y="11" width="11" height="11" style="fill:rgb(0,0,0);" />
<rect x="165" y="11" width="11" height="11" style="fill:rgb(0,0,0);" />
<rect x="176" y="11" width="11" height="11" style="fill:rgb(0,0,0);" />
<rect x="209" y="11" width="11" height="11" style="fill:rgb(0,0,0);" />
<rect x="253" y="11" width="11" height="11" style="fill:rgb(0,0,0);" />
<rect x="264" y="11" width="11" height="11" style="fill:rgb(0,0,0);" />
<rect x="308" y="11" width="11" height="11" style="fill:rgb(0,0,0);" />
<rect x="330" y="11" width="11" height="11" style="fill:rgb(0,0,0);" />
<rect x="396" y="11" width="11" height="11" style="fill:rgb(0,0,0);" />
<rect x="0" y="22" width="11" height="11" style="fill:rgb(0,0,0);" />
<rect x="22" y="22" width="11" height="11" style="fill:rgb(0,0,0);" />
<rect x="33" y="22" width="11" height="11" style="fill:rgb(0,0,0);" />
<rect x="44" y="22" width="11" height="11" style="fill:rgb(0,0,0);" />
<rect x="66" y="22" width="11" height="11" style="fill:rgb(0,0,0);" />
<rect x="110" y="22" width="11" height="11" style="fill:rgb(0,0,0);" />
<rect x="121" y="22" width="11" height="11" style="fill:rgb(0,0,0);" />
<rect x="143" y="22" width="11" height="11" style="fill:rgb(0,0,0);" />
<rect x="165" y="22" width="11" height="11" style="fill:rgb(0,0,0);" />
<rect x="176" y="22" width="11" height="11" style="fill:rgb(0,0,0);" />
<rect x="187" y="22" width="11" height="11" style="fill:rgb(0,0,0);" />
<rect x="198" y="22" width="11" height="11" style="fill:rgb(0,0,0);" />
<rect x="231" y="22" width="11" height="11" style="fill:rgb(0,0,0);" />
<rect x="264" y="22" width="11" height="11" style="fill:rgb(0,0,0);" />
<rect x="297" y="22" width="11" height="11" style="fill:rgb(0,0,0);" />
<rect x="308" y="22" width="11" height="11" style="fill:rgb(0,0,0);" />
<rect x="330" y="22" width="11" height="11" style="fill:rgb(0,0,0);" />
<rect x="352" y="22" width="11" height="11" style="fill:rgb(0,0,0);" />
<rect x="363" y="22" width="11" height="11" style="fill:rgb(0,0,0);" />
<rect x="374" y="22" width="11" height="11" style="fill:rgb(0,0,0);" />
<rect x="396" y="22" width="11" height="11" style="fill:rgb(0,0,0);" />
<rect x="0" y="33" width="11" height="11" style="fill:rgb(0,0,0);" />
<rect x="22" y="33" width="11" height="11" style="fill:rgb(0,0,0);" />
<rect x="33" y="33" width="11" height="11" style="fill:rgb(0,0,0);" />
<rect x="44" y="33" width="11" height="11" style="fill:rgb(0,0,0);" />
<rect x="66" y="33" width="11" height="11" style="fill:rgb(0,0,0);" />
<rect x="88" y="33" width="11" height="11" style="fill:rgb(0,0,0);" />
<rect x="99" y="33" width="11" height="11" style="fill:rgb(0,0,0);" />
<rect x="121" y="33" width="11" height="11" style="fill:rgb(0,0,0);" />
<rect x="143" y="33" width="11" height="11" style="fill:rgb(0,0,0);" />
<rect x="154" y="33" width="11" height="11" style="fill:rgb(0,0,0);" />
<rect x="275" y="33" width="11" height="11" style="fill:rgb(0,0,0);" />
<rect x="286" y="33" width="11" height="11" style="fill:rgb(0,0,0);" />
<rect x="297" y="33" width="11" height="11" style="fill:rgb(0,0,0);" />
<rect x="308" y="33" width="11" height="11" style="fill:rgb(0,0,0);" />
<rect x="330" y="33" width="11" height="11" style="fill:rgb(0,0,0);" />
<rect x="352" y="33" width="11" height="11" style="fill:rgb(0,0,0);" />
<rect x="363" y="33" width="11" height="11" style="fill:rgb(0,0,0);" />
<rect x="374" y="33" width="11" height="11" style="fill:rgb(0,0,0);" />
<rect x="396" y="33" width="11" height="11" style="fill:rgb(0,0,0);" />
<rect x="0" y="44" width="11" height="11" style="fill:rgb(0,0,0);" />
<rect x="22" y="44" width="11" height="11" style="fill:rgb(0,0,0);" />
<rect x="33" y="44" width="11" height="11" style="fill:rgb(0,0,0);" />
<rect x="44" y="44" width="11" height="11" style="fill:rgb(0,0,0);" />
<rect x="66" y="44" width="11" height="11" style="fill:rgb(0,0,0);" />
<rect x="88" y="44" width="11" height="11" style="fill:rgb(0,0,0);" />
<rect x="99" y="44" width="11" height="11" style="fill:rgb(0,0,0);" />
<rect x="110" y="44" width="11" height="11" style="fill:rgb(0,0,0);" />
<rect x="121" y="44" width="11" height="11" style="fill:rgb(0,0,0);" />
<rect x="143" y="44" width="11" height="11" style="fill:rgb(0,0,0);" />
<rect x="165" y="44" width="11" height="11" style="fill:rgb(0,0,0);" />
<rect x="176" y="44" width="11" height="11" style="fill:rgb(0,0,0);" />
<rect x="187" y="44" width="11" height="11" style="fill:rgb(0,0,0);" />
<rect x="198" y="44" width="11" height="11" style="fill:rgb(0,0,0);" />
<rect x="253" y="44" width="11" height="11" style="fill:rgb(0,0,0);" />
<rect x="297" y="44" width="11" height="11" style="fill:rgb(0,0,0);" />
<rect x="330" y="44" width="11" height="11" style="fill:rgb(0,0,0);" />
<rect x="352" y="44" width="11" height="11" style="fill:rgb(0,0,0);" />
<rect x="363" y="44" width="11" height="11" style="fill:rgb(0,0,0);" />
<rect x="374" y="44" width="11" height="11" style="fill:rgb(0,0,0);" />
<rect x="396" y="44" width="11" height="11" style="fill:rgb(0,0,0);" />
<rect x="0" y="55" width="11" height="11" style="fill:rgb(0,0,0);" />
<rect x="66" y="55" width="11" height="11" style="fill:rgb(0,0,0);" />
<rect x="88" y="55" width="11" height="11" style="fill:rgb(0,0,0);" />
<rect x="99" y="55" width="11" height="11" style="fill:rgb(0,0,0);" />
<rect x="110" y="55" width="11" height="11" style="fill:rgb(0,0,0);" />
<rect x="121" y="55" width="11" height="11" style="fill:rgb(0,0,0);" />
<rect x="132" y="55" width="11" height="11" style="fill:rgb(0,0,0);" />
<rect x="154" y="55" width="11" height="11" style="fill:rgb(0,0,0);" />
<rect x="165" y="55" width="11" height="11" style="fill:rgb(0,0,0);" />
<rect x="187" y="55" width="11" height="11" style="fill:rgb(0,0,0);" />
<rect x="209" y="55" width="11" height="11" style="fill:rgb(0,0,0);" />
<rect x="264" y="55" width="11" height="11" style="fill:rgb(0,0,0);" />
<rect x="308" y="55" width="11" height="11" style="fill:rgb(0,0,0);" />
<rect x="330" y="55" width="11" height="11" style="fill:rgb(0,0,0);" />
<rect x="396" y="55" width="11" height="11" style="fill:rgb(0,0,0);" />
<rect x="0" y="66" width="11" height="11" style="fill:rgb(0,0,0);" />
<rect x="11" y="66" width="11" height="11" style="fill:rgb(0,0,0);" />
<rect x="22" y="66" width="11" height="11" style="fill:rgb(0,0,0);" />
<rect x="33" y="66" width="11" height="11" style="fill:rgb(0,0,0);" />
<rect x="44" y="66" width="11" height="11" style="fill:rgb(0,0,0);" />
<rect x="55" y="66" width="11" height="11" style="fill:rgb(0,0,0);" />
<rect x="66" y="66" width="11" height="11" style="fill:rgb(0,0,0);" />
<rect x="88" y="66" width="11" height="11" style="fill:rgb(0,0,0);" />
<rect x="110" y="66" width="11" height="11" style="fill:rgb(0,0,0);" />
<rect x="132" y="66" width="11" height="11" style="fill:rgb(0,0,0);" />
<rect x="154" y="66" width="11" height="11" style="fill:rgb(0,0,0);" />
<rect x="176" y="66" width="11" height="11" style="fill:rgb(0,0,0);" />
<rect x="198" y="66" width="11" height="11" style="fill:rgb(0,0,0);" />
<rect x="220" y="66" width="11" height="11" style="fill:rgb(0,0,0);" />
<rect x="242" y="66" width="11" height="11" style="fill:rgb(0,0,0);" />
<rect x="264" y="66" width="11" height="11" style="fill:rgb(0,0,0);" />
<rect x="286" y="66" width="11" height="11" style="fill:rgb(0,0,0);" />
<rect x="308" y="66" width="11" height="11" style="fill:rgb(0,0,0);" />
<rect x="330" y="66" width="11" height="11" style="fill:rgb(0,0,0);" />
<rect x="341" y="66" width="11" height="11" style="fill:rgb(0,0,0);" />
<rect x="352" y="66" width="11" height="11" style="fill:rgb(0,0,0);" />
<rect x="363" y="66" width="11" height="11" style="fill:rgb(0,0,0);" />
<rect x="374" y="66" width="11" height="11" style="fill:rgb(0,0,0);" />
<rect x="385" y="66" width="11" height="11" style="fill:rgb(0,0,0);" />
<rect x="396" y="66" width="11" height="11" style="fill:rgb(0,0,0);" />
<rect x="88" y="77" width="11" height="11" style="fill:rgb(0,0,0);" />
<rect x="99" y="77" width="11" height="11" style="fill:rgb(0,0,0);" />
<rect x="110" y="77" width="11" height="11" style="fill:rgb(0,0,0);" />
<rect x="143" y="77" width="11" height="11" style="fill:rgb(0,0,0);" />
<rect x="154" y="77" width="11" height="11" style="fill:rgb(0,0,0);" />
<rect x="209" y="77" width="11" height="11" style="fill:rgb(0,0,0);" />
<rect x="220" y="77" width="11" height="11" style="fill:rgb(0,0,0);" />
<rect x="231" y="77" width="11" height="11" style="fill:rgb(0,0,0);" />
<rect x="275" y="77" width="11" height="11" style="fill:rgb(0,0,0);" />
<rect x="297" y="77" width="11" height="11" style="fill:rgb(0,0,0);" />
<rect x="0" y="88" width="11" height="11" style="fill:rgb(0,0,0);" />
<rect x="44" y="88" width="11" height="11" style="fill:rgb(0,0,0);" />
<rect x="66" y="88" width="11" height="11" style="fill:rgb(0,0,0);" />
<rect x="77" y="88" width="11" height="11" style="fill:rgb(0,0,0);" />
<rect x="88" y="88" width="11" height="11" style="fill:rgb(0,0,0);" />
<rect x="110" y="88" width="11" height="11" style="fill:rgb(0,0,0);" />
<rect x="132" y="88" width="11" height="11" style="fill:rgb(0,0,0);" />
<rect x="143" y="88" width="11" height="11" style="fill:rgb(0,0,0);" />
<rect x="165" y="88" width="11" height="11" style="fill:rgb(0,0,0);" />
<rect x="176" y="88" width="11" height="11" style="fill:rgb(0,0,0);" />
<rect x="220" y="88" width="11" height="11" style="fill:rgb(0,0,0);" />
<rect x="275" y="88" width="11" height="11" style="fill:rgb(0,0,0);" />
<rect x="319" y="88" width="11" height="11" style="fill:rgb(0,0,0);" />
<rect x="330" y="88" width="11" height="11" style="fill:rgb(0,0,0);" />
<rect x="341" y="88" width="11" height="11" style="fill:rgb(0,0,0);" />
<rect x="352" y="88" width="11" height="11" style="fill:rgb(0,0,0);" />
<rect x="363" y="88" width="11" height="11" style="fill:rgb(0,0,0);" />
<rect x="396" y="88" width="11" height="11" style="fill:rgb(0,0,0);" />
<rect x="0" y="99" width="11" height="11" style="fill:rgb(0,0,0);" />
<rect x="55" y="99" width="11" height="11" style="fill:rgb(0,0,0);" />
<rect x="77" y="99" width="11" height="11" style="fill:rgb(0,0,0);" />
<rect x="99" y="99" width="11" height="11" style="fill:rgb(0,0,0);" />
<rect x="132" y="99" width="11" height="11" style="fill:rgb(0,0,0);" />
<rect x="143" y="99" width="11" height="11" style="fill:rgb(0,0,0);" />
<rect x="187" y="99" width="11" height="11" style="fill:rgb(0,0,0);" />
<rect x="198" y="99" width="11" height="11" style="fill:rgb(0,0,0);" />
<rect x="209" y="99" width="11" height="11" style="fill:rgb(0,0,0);" />
<rect x="242" y="99" width="11" height="11" style="fill:rgb(0,0,0);" />
<rect x="264" y="99" width="11" height="11" style="fill:rgb(0,0,0);" />
<rect x="275" y="99" width="11" height="11" style="fill:rgb(0,0,0);" />
<rect x="286" y="99" width="11" height="11" style="fill:rgb(0,0,0);" />
<rect x="308" y="99" width="11" height="11" style="fill:rgb(0,0,0);" />
<rect x="330" y="99" width="11" height="11" style="fill:rgb(0,0,0);" />
<rect x="363" y="99" width="11" height="11" style="fill:rgb(0,0,0);" />
<rect x="374" y="99" width="11" height="11" style="fill:rgb(0,0,0);" />
<rect x="385" y="99" width="11" height="11" style="fill:rgb(0,0,0);" />
<rect x="22" y="110" width="11" height="11" style="fill:rgb(0,0,0);" />
<rect x="44" y="110" width="11" height="11" style="fill:rgb(0,0,0);" />
<rect x="55" y="110" width="11" height="11" style="fill:rgb(0,0,0);" />
<rect x="66" y="110" width="11" height="11" style="fill:rgb(0,0,0);" />
<rect x="132" y="110" width="11" height="11" style="fill:rgb(0,0,0);" />
<rect x="154" y="110" width="11" height="11" style="fill:rgb(0,0,0);" />
<rect x="165" y="110" width="11" height="11" style="fill:rgb(0,0,0);" />
<rect x="198" y="110" width="11" height="11" style="fill:rgb(0,0,0);" />
<rect x="209" y="110" width="11" height="11" style="fill:rgb(0,0,0);" />
<rect x="231" y="110" width="11" height="11" style="fill:rgb(0,0,0);" />
<rect x="253" y="110" width="11" height="11" style="fill:rgb(0,0,0);" />
<rect x="264" y="110" width="11" height="11" style="fill:rgb(0,0,0);" />
<rect x="286" y="110" width="11" height="11" style="fill:rgb(0,0,0);" />
<rect x="308" y="110" width="11" height="11" style="fill:rgb(0,0,0);" />
<rect x="352" y="110" width="11" height="11" style="fill:rgb(0,0,0);" />
<rect x="0" y="121" width="11" height="11" style="fill:rgb(0,0,0);" />
<rect x="22" y="121" width="11" height="11" style="fill:rgb(0,0,0);" />
<rect x="33" y="121" width="11" height="11" style="fill:rgb(0,0,0);" />
<rect x="44" y="121" width="11" height="11" style="fill:rgb(0,0,0);" />
<rect x="55" y="121" width="11" height="11" style="fill:rgb(0,0,0);" />
<rect x="88" y="121" width="11" height="11" style="fill:rgb(0,0,0);" />
<rect x="132" y="121" width="11" height="11" style="fill:rgb(0,0,0);" />
<rect x="143" y="121" width="11" height="11" style="fill:rgb(0,0,0);" />
<rect x="165" y="121" width="11" height="11" style="fill:rgb(0,0,0);" />
<rect x="176" y="121" width="11" height="11" style="fill:rgb(0,0,0);" />
<rect x="187" y="121" width="11" height="11" style="fill:rgb(0,0,0);" />
<rect x="198" y="121" width="11" height="11" style="fill:rgb(0,0,0);" />
<rect x="209" y="121" width="11" height="11" style="fill:rgb(0,0,0);" />
<rect x="220" y="121" width="11" height="11" style="fill:rgb(0,0,0);" />
<rect x="231" y="121" width="11" height="11" style="fill:rgb(0,0,0);" />
<rect x="242" y="121" width="11" height="11" style="fill:rgb(0,0,0);" />
<rect x="253" y="121" width="11" height="11" style="fill:rgb(0,0,0);" />
<rect x="341" y="121" width="11" height="11" style="fill:rgb(0,0,0);" />
<rect x="352" y="121" width="11" height="11" style="fill:rgb(0,0,0);" />
<rect x="374" y="121" width="11" height="11" style="fill:rgb(0,0,0);" />
<rect x="385" y="121" width="11" height="11" style="fill:rgb(0,0,0);" />
<rect x="0" y="132" width="11" height="11" style="fill:rgb(0,0,0);" />
<rect x="11" y="132" width="11" height="11" style="fill:rgb(0,0,0);" />
<rect x="22" y="132" width="11" height="11" style="fill:rgb(0,0,0);" />
<rect x="55" y="132" width="11" height="11" style="fill:rgb(0,0,0);" />
<rect x="66" y="132" width="11" height="11" style="fill:rgb(0,0,0);" />
<rect x="77" y="132" width="11" height="11" style="fill:rgb(0,0,0);" />
<rect x="110" y="132" width="11" height="11" style="fill:rgb(0,0,0);" />
<rect x="121" y="132" width="11" height="11" style="fill:rgb(0,0,0);" />
<rect x="143" y="132" width="11" height="11" style="fill:rgb(0,0,0);" />
<rect x="154" y="132" width="11" height="11" style="fill:rgb(0,0,0);" />
<rect x="187" y="132" width="11" height="11" style="fill:rgb(0,0,0);" />
<rect x="220" y="132" width="11" height="11" style="fill:rgb(0,0,0);" />
<rect x="231" y="132" width="11" height="11" style="fill:rgb(0,0,0);" />
<rect x="242" y="132" width="11" height="11" style="fill:rgb(0,0,0);" />
<rect x="297" y="132" width="11" height="11" style="fill:rgb(0,0,0);" />
<rect x="319" y="132" width="11" height="11" style="fill:rgb(0,0,0);" />
<rect x="330" y="132" width="11" height="11" style="fill:rgb(0,0,0);" />
<rect x="341" y="132" width="11" height="11" style="fill:rgb(0,0,0);" />
<rect x="374" y="132" width="11" height="11" style="fill:rgb(0,0,0);" />
<rect x="385" y="132" width="11" height="11" style="fill:rgb(0,0,0);" />
<rect x="396" y="132" width="11" height="11" style="fill:rgb(0,0,0);" />
<rect x="22" y="143" width="11" height="11" style="fill:rgb(0,0,0);" />
<rect x="77" y="143" width="11" height="11" style="fill:rgb(0,0,0);" />
<rect x="110" y="143" width="11" height="11" style="fill:rgb(0,0,0);" />
<rect x="132" y="143" width="11" height="11" style="fill:rgb(0,0,0);" />
<rect x="143" y="143" width="11" height="11" style="fill:rgb(0,0,0);" />
<rect x="165" y="143" width="11" height="11" style="fill:rgb(0,0,0);" />
<rect x="176" y="143" width="11" height="11" style="fill:rgb(0,0,0);" />
<rect x="198" y="143" width="11" height="11" style="fill:rgb(0,0,0);" />
<rect x="231" y="143" width="11" height="11" style="fill:rgb(0,0,0);" />
<rect x="253" y="143" width="11" height="11" style="fill:rgb(0,0,0);" />
<rect x="275" y="143" width="11" height="11" style="fill:rgb(0,0,0);" />
<rect x="297" y="143" width="11" height="11" style="fill:rgb(0,0,0);" />
<rect x="308" y="143" width="11" height="11" style="fill:rgb(0,0,0);" />
<rect x="352" y="143" width="11" height="11" style="fill:rgb(0,0,0);" />
<rect x="363" y="143" width="11" height="11" style="fill:rgb(0,0,0);" />
<rect x="11" y="154" width="11" height="11" style="fill:rgb(0,0,0);" />
<rect x="22" y="154" width="11" height="11" style="fill:rgb(0,0,0);" />
<rect x="66" y="154" width="11" height="11" style="fill:rgb(0,0,0);" />
<rect x="88" y="154" width="11" height="11" style="fill:rgb(0,0,0);" />
<rect x="99" y="154" width="11" height="11" style="fill:rgb(0,0,0);" />
<rect x="132" y="154" width="11" height="11" style="fill:rgb(0,0,0);" />
<rect x="143" y="154" width="11" height="11" style="fill:rgb(0,0,0);" />
<rect x="154" y="154" width="11" height="11" style="fill:rgb(0,0,0);" />
<rect x="165" y="154" width="11" height="11" style="fill:rgb(0,0,0);" />
<rect x="187" y="154" width="11" height="11" style="fill:rgb(0,0,0);" />
<rect x="220" y="154" width="11" height="11" style="fill:rgb(0,0,0);" />
<rect x="253" y="154" width="11" height="11" style="fill:rgb(0,0,0);" />
<rect x="297" y="154" width="11" height="11" style="fill:rgb(0,0,0);" />
<rect x="308" y="154" width="11" height="11" style="fill:rgb(0,0,0);" />
<rect x="319" y="154" width="11" height="11" style="fill:rgb(0,0,0);" />
<rect x="341" y="154" width="11" height="11" style="fill:rgb(0,0,0);" />
<rect x="352" y="154" width="11" height="11" style="fill:rgb(0,0,0);" />
<rect x="363" y="154" width="11" height="11" style="fill:rgb(0,0,0);" />
<rect x="374" y="154" width="11" height="11" style="fill:rgb(0,0,0);" />
<rect x="385" y="154" width="11" height="11" style="fill:rgb(0,0,0);" />
<rect x="22" y="165" width="11" height="11" style="fill:rgb(0,0,0);" />
<rect x="33" y="165" width="11" height="11" style="fill:rgb(0,0,0);" />
<rect x="88" y="165" width="11" height="11" style="fill:rgb(0,0,0);" />
<rect x="110" y="165" width="11" height="11" style="fill:rgb(0,0,0);" />
<rect x="187" y="165" width="11" height="11" style="fill:rgb(0,0,0);" />
<rect x="198" y="165" width="11" height="11" style="fill:rgb(0,0,0);" />
<rect x="209" y="165" width="11" height="11" style="fill:rgb(0,0,0);" />
<rect x="242" y="165" width="11" height="11" style="fill:rgb(0,0,0);" />
<rect x="286" y="165" width="11" height="11" style="fill:rgb(0,0,0);" />
<rect x="341" y="165" width="11" height="11" style="fill:rgb(0,0,0);" />
<rect x="374" y="165" width="11" height="11" style="fill:rgb(0,0,0);" />
<rect x="396" y="165" width="11" height="11" style="fill:rgb(0,0,0);" />
<rect x="0" y="176" width="11" height="11" style="fill:rgb(0,0,0);" />
<rect x="22" y="176" width="11" height="11" style="fill:rgb(0,0,0);" />
<rect x="33" y="176" width="11" height="11" style="fill:rgb(0,0,0);" />
<rect x="44" y="176" width="11" height="11" style="fill:rgb(0,0,0);" />
<rect x="66" y="176" width="11" height="11" style="fill:rgb(0,0,0);" />
<rect x="88" y="176" width="11" height="11" style="fill:rgb(0,0,0);" />
<rect x="121" y="176" width="11" height="11" style="fill:rgb(0,0,0);" />
<rect x="132" y="176" width="11" height="11" style="fill:rgb(0,0,0);" />
<rect x="165" y="176" width="11" height="11" style="fill:rgb(0,0,0);" />
<rect x="198" y="176" width="11" height="11" style="fill:rgb(0,0,0);" />
<rect x="209" y="176" width="11" height="11" style="fill:rgb(0,0,0);" />
<rect x="242" y="176" width="11" height="11" style="fill:rgb(0,0,0);" />
<rect x="264" y="176" width="11" height="11" style="fill:rgb(0,0,0);" />
<rect x="275" y="176" width="11" height="11" style="fill:rgb(0,0,0);" />
<rect x="286" y="176" width="11" height="11" style="fill:rgb(0,0,0);" />
<rect x="297" y="176" width="11" height="11" style="fill:rgb(0,0,0);" />
<rect x="308" y="176" width="11" height="11" style="fill:rgb(0,0,0);" />
<rect x="330" y="176" width="11" height="11" style="fill:rgb(0,0,0);" />
<rect x="352" y="176" width="11" height="11" style="fill:rgb(0,0,0);" />
<rect x="363" y="176" width="11" height="11" style="fill:rgb(0,0,0);" />
<rect x="374" y="176" width="11" height="11" style="fill:rgb(0,0,0);" />
<rect x="396" y="176" width="11" height="11" style="fill:rgb(0,0,0);" />
<rect x="0" y="187" width="11" height="11" style="fill:rgb(0,0,0);" />
<rect x="22" y="187" width="11" height="11" style="fill:rgb(0,0,0);" />
<rect x="44" y="187" width="11" height="11" style="fill:rgb(0,0,0);" />
<rect x="99" y="187" width="11" height="11" style="fill:rgb(0,0,0);" />
<rect x="132" y="187" width="11" height="11" style="fill:rgb(0,0,0);" />
<rect x="154" y="187" width="11" height="11" style="fill:rgb(0,0,0);" />
<rect x="176" y="187" width="11" height="11" style="fill:rgb(0,0,0);" />
<rect x="209" y="187" width="11" height="11" style="fill:rgb(0,0,0);" />
<rect x="220" y="187" width="11" height="11" style="fill:rgb(0,0,0);" />
<rect x="275" y="187" width="11" height="11" style="fill:rgb(0,0,0);" />
<rect x="319" y="187" width="11" height="11" style="fill:rgb(0,0,0);" />
<rect x="330" y="187" width="11" height="11" style="fill:rgb(0,0,0);" />
<rect x="341" y="187" width="11" height="11" style="fill:rgb(0,0,0);" />
<rect x="352" y="187" width="11" height="11" style="fill:rgb(0,0,0);" />
<rect x="363" y="187" width="11" height="11" style="fill:rgb(0,0,0);" />
<rect x="374" y="187" width="11" height="11" style="fill:rgb(0,0,0);" />
<rect x="385" y="187" width="11" height="11" style="fill:rgb(0,0,0);" />
<rect x="11" y="198" width="11" height="11" style="fill:rgb(0,0,0);" />
<rect x="55" y="198" width="11" height="11" style="fill:rgb(0,0,0);" />
<rect x="66" y="198" width="11" height="11" style="fill:rgb(0,0,0);" />
<rect x="99" y="198" width="11" height="11" style="fill:rgb(0,0,0);" />
<rect x="110" y="198" width="11" height="11" style="fill:rgb(0,0,0);" />
<rect x="121" y="198" width="11" height="11" style="fill:rgb(0,0,0);" />
<rect x="176" y="198" width="11" height="11" style="fill:rgb(0,0,0);" />
<rect x="220" y="198" width="11" height="11" style="fill:rgb(0,0,0);" />
<rect x="286" y="198" width="11" height="11" style="fill:rgb(0,0,0);" />
<rect x="297" y="198" width="11" height="11" style="fill:rgb(0,0,0);" />
<rect x="330" y="198" width="11" height="11" style="fill:rgb(0,0,0);" />
<rect x="341" y="198" width="11" height="11" style="fill:rgb(0,0,0);" />
<rect x="363" y="198" width="11" height="11" style="fill:rgb(0,0,0);" />
<rect x="0" y="209" width="11" height="11" style="fill:rgb(0,0,0);" />
<rect x="11" y="209" width="11" height="11" style="fill:rgb(0,0,0);" />
<rect x="33" y="209" width="11" height="11" style="fill:rgb(0,0,0);" />
<rect x="99" y="209" width="11" height="11" style="fill:rgb(0,0,0);" />
<rect x="154" y="209" width="11" height="11" style="fill:rgb(0,0,0);" />
<rect x="187" y="209" width="11" height="11" style="fill:rgb(0,0,0);" />
<rect x="198" y="209" width="11" height="11" style="fill:rgb(0,0,0);" />
<rect x="231" y="209" width="11" height="11" style="fill:rgb(0,0,0);" />
<rect x="242" y="209" width="11" height="11" style="fill:rgb(0,0,0);" />
<rect x="264" y="209" width="11" height="11" style="fill:rgb(0,0,0);" />
<rect x="286" y="209" width="11" height="11" style="fill:rgb(0,0,0);" />
<rect x="297" y="209" width="11" height="11" style="fill:rgb(0,0,0);" />
<rect x="308" y="209" width="11" height="11" style="fill:rgb(0,0,0);" />
<rect x="319" y="209" width="11" height="11" style="fill:rgb(0,0,0);" />
<rect x="374" y="209" width="11" height="11" style="fill:rgb(0,0,0);" />
<rect x="385" y="209" width="11" height="11" style="fill:rgb(0,0,0);" />
<rect x="0" y="220" width="11" height="11" style="fill:rgb(0,0,0);" />
<rect x="11" y="220" width="11" height="11" style="fill:rgb(0,0,0);" />
<rect x="33" y="220" width="11" height="11" style="fill:rgb(0,0,0);" />
<rect x="66" y="220" width="11" height="11" style="fill:rgb(0,0,0);" />
<rect x="110" y="220" width="11" height="11" style="fill:rgb(0,0,0);" />
<rect x="154" y="220" width="11" height="11" style="fill:rgb(0,0,0);" />
<rect x="165" y="220" width="11" height="11" style="fill:rgb(0,0,0);" />
<rect x="176" y="220" width="11" height="11" style="fill:rgb(0,0,0);" />
<rect x="187" y="220" width="11" height="11" style="fill:rgb(0,0,0);" />
<rect x="209" y="220" width="11" height="11" style="fill:rgb(0,0,0);" />
<rect x="220" y="220" width="11" height="11" style="fill:rgb(0,0,0);" />
<rect x="231" y="220" width="11" height="11" style="fill:rgb(0,0,0);" />
<rect x="242" y="220" width="11" height="11" style="fill:rgb(0,0,0);" />
<rect x="253" y="220" width="11" height="11" style="fill:rgb(0,0,0);" />
<rect x="264" y="220" width="11" height="11" style="fill:rgb(0,0,0);" />
<rect x="319" y="220" width="11" height="11" style="fill:rgb(0,0,0);" />
<rect x="330" y="220" width="11" height="11" style="fill:rgb(0,0,0);" />
<rect x="341" y="220" width="11" height="11" style="fill:rgb(0,0,0);" />
<rect x="374" y="220" width="11" height="11" style="fill:rgb(0,0,0);" />
<rect x="0" y="231" width="11" height="11" style="fill:rgb(0,0,0);" />
<rect x="11" y="231" width="11" height="11" style="fill:rgb(0,0,0);" />
<rect x="22" y="231" width="11" height="11" style="fill:rgb(0,0,0);" />
<rect x="33" y="231" width="11" height="11" style="fill:rgb(0,0,0);" />
<rect x="44" y="231" width="11" height="11" style="fill:rgb(0,0,0);" />
<rect x="77" y="231" width="11" height="11" style="fill:rgb(0,0,0);" />
<rect x="99" y="231" width="11" height="11" style="fill:rgb(0,0,0);" />
<rect x="132" y="231" width="11" height="11" style="fill:rgb(0,0,0);" />
<rect x="176" y="231" width="11" height="11" style="fill:rgb(0,0,0);" />
<rect x="187" y="231" width="11" height="11" style="fill:rgb(0,0,0);" />
<rect x="198" y="231" width="11" height="11" style="fill:rgb(0,0,0);" />
<rect x="253" y="231" width="11" height="11" style="fill:rgb(0,0,0);" />
<rect x="286" y="231" width="11" height="11" style="fill:rgb(0,0,0);" />
<rect x="297" y="231" width="11" height="11" style="fill:rgb(0,0,0);" />
<rect x="308" y="231" width="11" height="11" style="fill:rgb(0,0,0);" />
<rect x="352" y="231" width="11" height="11" style="fill:rgb(0,0,0);" />
<rect x="385" y="231" width="11" height="11" style="fill:rgb(0,0,0);" />
<rect x="0" y="242" width="11" height="11" style="fill:rgb(0,0,0);" />
<rect x="11" y="242" width="11" height="11" style="fill:rgb(0,0,0);" />
<rect x="55" y="242" width="11" height="11" style="fill:rgb(0,0,0);" />
<rect x="66" y="242" width="11" height="11" style="fill:rgb(0,0,0);" />
<rect x="88" y="242" width="11" height="11" style="fill:rgb(0,0,0);" />
<rect x="99" y="242" width="11" height="11" style="fill:rgb(0,0,0);" />
<rect x="132" y="242" width="11" height="11" style="fill:rgb(0,0,0);" />
<rect x="143" y="242" width="11" height="11" style="fill:rgb(0,0,0);" />
<rect x="165" y="242" width="11" height="11" style="fill:rgb(0,0,0);" />
<rect x="198" y="242" width="11" height="11" style="fill:rgb(0,0,0);" />
<rect x="231" y="242" width="11" height="11" style="fill:rgb(0,0,0);" />
<rect x="242" y="242" width="11" height="11" style="fill:rgb(0,0,0);" />
<rect x="253" y="242" width="11" height="11" style="fill:rgb(0,0,0);" />
<rect x="275" y="242" width="11" height="11" style="fill:rgb(0,0,0);" />
<rect x="286" y="242" width="11" height="11" style="fill:rgb(0,0,0);" />
<rect x="297" y="242" width="11" height="11" style="fill:rgb(0,0,0);" />
<rect x="330" y="242" width="11" height="11" style="fill:rgb(0,0,0);" />
<rect x="341" y="242" width="11" height="11" style="fill:rgb(0,0,0);" />
<rect x="352" y="242" width="11" height="11" style="fill:rgb(0,0,0);" />
<rect x="363" y="242" width="11" height="11" style="fill:rgb(0,0,0);" />
<rect x="374" y="242" width="11" height="11" style="fill:rgb(0,0,0);" />
<rect x="0" y="253" width="11" height="11" style="fill:rgb(0,0,0);" />
<rect x="44" y="253" width="11" height="11" style="fill:rgb(0,0,0);" />
<rect x="88" y="253" width="11" height="11" style="fill:rgb(0,0,0);" />
<rect x="99" y="253" width="11" height="11" style="fill:rgb(0,0,0);" />
<rect x="110" y="253" width="11" height="11" style="fill:rgb(0,0,0);" />
<rect x="121" y="253" width="11" height="11" style="fill:rgb(0,0,0);" />
<rect x="154" y="253" width="11" height="11" style="fill:rgb(0,0,0);" />
<rect x="176" y="253" width="11" height="11" style="fill:rgb(0,0,0);" />
<rect x="209" y="253" width="11" height="11" style="fill:rgb(0,0,0);" />
<rect x="220" y="253" width="11" height="11" style="fill:rgb(0,0,0);" />
<rect x="231" y="253" width="11" height="11" style="fill:rgb(0,0,0);" />
<rect x="275" y="253" width="11" height="11" style="fill:rgb(0,0,0);" />
<rect x="297" y="253" width="11" height="11" style="fill:rgb(0,0,0);" />
<rect x="308" y="253" width="11" height="11" style="fill:rgb(0,0,0);" />
<rect x="319" y="253" width="11" height="11" style="fill:rgb(0,0,0);" />
<rect x="330" y="253" width="11" height="11" style="fill:rgb(0,0,0);" />
<rect x="341" y="253" width="11" height="11" style="fill:rgb(0,0,0);" />
<rect x="352" y="253" width="11" height="11" style="fill:rgb(0,0,0);" />
<rect x="363" y="253" width="11" height="11" style="fill:rgb(0,0,0);" />
<rect x="374" y="253" width="11" height="11" style="fill:rgb(0,0,0);" />
<rect x="385" y="253" width="11" height="11" style="fill:rgb(0,0,0);" />
<rect x="396" y="253" width="11" height="11" style="fill:rgb(0,0,0);" />
<rect x="0" y="264" width="11" height="11" style="fill:rgb(0,0,0);" />
<rect x="22" y="264" width="11" height="11" style="fill:rgb(0,0,0);" />
<rect x="66" y="264" width="11" height="11" style="fill:rgb(0,0,0);" />
<rect x="77" y="264" width="11" height="11" style="fill:rgb(0,0,0);" />
<rect x="88" y="264" width="11" height="11" style="fill:rgb(0,0,0);" />
<rect x="99" y="264" width="11" height="11" style="fill:rgb(0,0,0);" />
<rect x="132" y="264" width="11" height="11" style="fill:rgb(0,0,0);" />
<rect x="143" y="264" width="11" height="11" style="fill:rgb(0,0,0);" />
<rect x="154" y="264" width="11" height="11" style="fill:rgb(0,0,0);" />
<rect x="165" y="264" width="11" height="11" style="fill:rgb(0,0,0);" />
<rect x="176" y="264" width="11" height="11" style="fill:rgb(0,0,0);" />
<rect x="220" y="264" width="11" height="11" style="fill:rgb(0,0,0);" />
<rect x="275" y="264" width="11" height="11" style="fill:rgb(0,0,0);" />
<rect x="297" y="264" width="11" height="11" style="fill:rgb(0,0,0);" />
<rect x="319" y="264" width="11" height="11" style="fill:rgb(0,0,0);" />
<rect x="341" y="264" width="11" height="11" style="fill:rgb(0,0,0);" />
<rect x="352" y="264" width="11" height="11" style="fill:rgb(0,0,0);" />
<rect x="363" y="264" width="11" height="11" style="fill:rgb(0,0,0);" />
<rect x="374" y="264" width="11" height="11" style="fill:rgb(0,0,0);" />
<rect x="385" y="264" width="11" height="11" style="fill:rgb(0,0,0);" />
<rect x="44" y="275" width="11" height="11" style="fill:rgb(0,0,0);" />
<rect x="88" y="275" width="11" height="11" style="fill:rgb(0,0,0);" />
<rect x="99" y="275" width="11" height="11" style="fill:rgb(0,0,0);" />
<rect x="143" y="275" width="11" height="11" style="fill:rgb(0,0,0);" />
<rect x="154" y="275" width="11" height="11" style="fill:rgb(0,0,0);" />
<rect x="187" y="275" width="11" height="11" style="fill:rgb(0,0,0);" />
<rect x="198" y="275" width="11" height="11" style="fill:rgb(0,0,0);" />
<rect x="209" y="275" width="11" height="11" style="fill:rgb(0,0,0);" />
<rect x="231" y="275" width="11" height="11" style="fill:rgb(0,0,0);" />
<rect x="242" y="275" width="11" height="11" style="fill:rgb(0,0,0);" />
<rect x="264" y="275" width="11" height="11" style="fill:rgb(0,0,0);" />
<rect x="275" y="275" width="11" height="11" style="fill:rgb(0,0,0);" />
<rect x="286" y="275" width="11" height="11" style="fill:rgb(0,0,0);" />
<rect x="308" y="275" width="11" height="11" style="fill:rgb(0,0,0);" />
<rect x="330" y="275" width="11" height="11" style="fill:rgb(0,0,0);" />
<rect x="363" y="275" width="11" height="11" style="fill:rgb(0,0,0);" />
<rect x="0" y="286" width="11" height="11" style="fill:rgb(0,0,0);" />
<rect x="11" y="286" width="11" height="11" style="fill:rgb(0,0,0);" />
<rect x="22" y="286" width="11" height="11" style="fill:rgb(0,0,0);" />
<rect x="33" y="286" width="11" height="11" style="fill:rgb(0,0,0);" />
<rect x="55" y="286" width="11" height="11" style="fill:rgb(0,0,0);" />
<rect x="66" y="286" width="11" height="11" style="fill:rgb(0,0,0);" />
<rect x="99" y="286" width="11" height="11" style="fill:rgb(0,0,0);" />
<rect x="121" y="286" width="11" height="11" style="fill:rgb(0,0,0);" />
<rect x="132" y="286" width="11" height="11" style="fill:rgb(0,0,0);" />
<rect x="165" y="286" width="11" height="11" style="fill:rgb(0,0,0);" />
<rect x="187" y="286" width="11" height="11" style="fill:rgb(0,0,0);" />
<rect x="209" y="286" width="11" height="11" style="fill:rgb(0,0,0);" />
<rect x="253" y="286" width="11" height="11" style="fill:rgb(0,0,0);" />
<rect x="264" y="286" width="11" height="11" style="fill:rgb(0,0,0);" />
<rect x="275" y="286" width="11" height="11" style="fill:rgb(0,0,0);" />
<rect x="308" y="286" width="11" height="11" style="fill:rgb(0,0,0);" />
<rect x="319" y="286" width="11" height="11" style="fill:rgb(0,0,0);" />
<rect x="352" y="286" width="11" height="11" style="fill:rgb(0,0,0);" />
<rect x="374" y="286" width="11" height="11" style="fill:rgb(0,0,0);" />
<rect x="0" y="297" width="11" height="11" style="fill:rgb(0,0,0);" />
<rect x="11" y="297" width="11" height="11" style="fill:rgb(0,0,0);" />
<rect x="44" y="297" width="11" height="11" style="fill:rgb(0,0,0);" />
<rect x="77" y="297" width="11" height="11" style="fill:rgb(0,0,0);" />
<rect x="88" y="297" width="11" height="11" style="fill:rgb(0,0,0);" />
<rect x="110" y="297" width="11" height="11" style="fill:rgb(0,0,0);" />
<rect x="165" y="297" width="11" height="11" style="fill:rgb(0,0,0);" />
<rect x="176" y="297" width="11" height="11" style="fill:rgb(0,0,0);" />
<rect x="187" y="297" width="11" height="11" style="fill:rgb(0,0,0);" />
<rect x="209" y="297" width="11" height="11" style="fill:rgb(0,0,0);" />
<rect x="220" y="297" width="11" height="11" style="fill:rgb(0,0,0);" />
<rect x="231" y="297" width="11" height="11" style="fill:rgb(0,0,0);" />
<rect x="253" y="297" width="11" height="11" style="fill:rgb(0,0,0);" />
<rect x="286" y="297" width="11" height="11" style="fill:rgb(0,0,0);" />
<rect x="341" y="297" width="11" height="11" style="fill:rgb(0,0,0);" />
<rect x="352" y="297" width="11" height="11" style="fill:rgb(0,0,0);" />
<rect x="374" y="297" width="11" height="11" style="fill:rgb(0,0,0);" />
<rect x="385" y="297" width="11" height="11" style="fill:rgb(0,0,0);" />
<rect x="55" y="308" width="11" height="11" style="fill:rgb(0,0,0);" />
<rect x="66" y="308" width="11" height="11" style="fill:rgb(0,0,0);" />
<rect x="77" y="308" width="11" height="11" style="fill:rgb(0,0,0);" />
<rect x="88" y="308" width="11" height="11" style="fill:rgb(0,0,0);" />
<rect x="99" y="308" width="11" height="11" style="fill:rgb(0,0,0);" />
<rect x="110" y="308" width="11" height="11" style="fill:rgb(0,0,0);" />
<rect x="143" y="308" width="11" height="11" style="fill:rgb(0,0,0);" />
<rect x="154" y="308" width="11" height="11" style="fill:rgb(0,0,0);" />
<rect x="187" y="308" width="11" height="11" style="fill:rgb(0,0,0);" />
<rect x="220" y="308" width="11" height="11" style="fill:rgb(0,0,0);" />
<rect x="231" y="308" width="11" height="11" style="fill:rgb(0,0,0);" />
<rect x="242" y="308" width="11" height="11" style="fill:rgb(0,0,0);" />
<rect x="297" y="308" width="11" height="11" style="fill:rgb(0,0,0);" />
<rect x="308" y="308" width="11" height="11" style="fill:rgb(0,0,0);" />
<rect x="319" y="308" width="11" height="11" style="fill:rgb(0,0,0);" />
<rect x="330" y="308" width="11" height="11" style="fill:rgb(0,0,0);" />
<rect x="341" y="308" width="11" height="11" style="fill:rgb(0,0,0);" />
<rect x="352" y="308" width="11" height="11" style="fill:rgb(0,0,0);" />
<rect x="363" y="308" width="11" height="11" style="fill:rgb(0,0,0);" />
<rect x="374" y="308" width="11" height="11" style="fill:rgb(0,0,0);" />
<rect x="396" y="308" width="11" height="11" style="fill:rgb(0,0,0);" />
<rect x="88" y="319" width="11" height="11" style="fill:rgb(0,0,0);" />
<rect x="99" y="319" width="11" height="11" style="fill:rgb(0,0,0);" />
<rect x="110" y="319" width="11" height="11" style="fill:rgb(0,0,0);" />
<rect x="154" y="319" width="11" height="11" style="fill:rgb(0,0,0);" />
<rect x="165" y="319" width="11" height="11" style="fill:rgb(0,0,0);" />
<rect x="176" y="319" width="11" height="11" style="fill:rgb(0,0,0);" />
<rect x="198" y="319" width="11" height="11" style="fill:rgb(0,0,0);" />
<rect x="220" y="319" width="11" height="11" style="fill:rgb(0,0,0);" />
<rect x="231" y="319" width="11" height="11" style="fill:rgb(0,0,0);" />
<rect x="242" y="319" width="11" height="11" style="fill:rgb(0,0,0);" />
<rect x="253" y="319" width="11" height="11" style="fill:rgb(0,0,0);" />
<rect x="275" y="319" width="11" height="11" style="fill:rgb(0,0,0);" />
<rect x="286" y="319" width="11" height="11" style="fill:rgb(0,0,0);" />
<rect x="308" y="319" width="11" height="11" style="fill:rgb(0,0,0);" />
<rect x="352" y="319" width="11" height="11" style="fill:rgb(0,0,0);" />
<rect x="374" y="319" width="11" height="11" style="fill:rgb(0,0,0);" />
<rect x="0" y="330" width="11" height="11" style="fill:rgb(0,0,0);" />
<rect x="11" y="330" width="11" height="11" style="fill:rgb(0,0,0);" />
<rect x="22" y="330" width="11" height="11" style="fill:rgb(0,0,0);" />
<rect x="33" y="330" width="11" height="11" style="fill:rgb(0,0,0);" />
<rect x="44" y="330" width="11" height="11" style="fill:rgb(0,0,0);" />
<rect x="55" y="330" width="11" height="11" style="fill:rgb(0,0,0);" />
<rect x="66" y="330" width="11" height="11" style="fill:rgb(0,0,0);" />
<rect x="88" y="330" width="11" height="11" style="fill:rgb(0,0,0);" />
<rect x="110" y="330" width="11" height="11" style="fill:rgb(0,0,0);" />
<rect x="121" y="330" width="11" height="11" style="fill:rgb(0,0,0);" />
<rect x="132" y="330" width="11" height="11" style="fill:rgb(0,0,0);" />
<rect x="154" y="330" width="11" height="11" style="fill:rgb(0,0,0);" />
<rect x="165" y="330" width="11" height="11" style="fill:rgb(0,0,0);" />
<rect x="187" y="330" width="11" height="11" style="fill:rgb(0,0,0);" />
<rect x="253" y="330" width="11" height="11" style="fill:rgb(0,0,0);" />
<rect x="264" y="330" width="11" height="11" style="fill:rgb(0,0,0);" />
<rect x="308" y="330" width="11" height="11" style="fill:rgb(0,0,0);" />
<rect x="330" y="330" width="11" height="11" style="fill:rgb(0,0,0);" />
<rect x="352" y="330" width="11" height="11" style="fill:rgb(0,0,0);" />
<rect x="363" y="330" width="11" height="11" style="fill:rgb(0,0,0);" />
<rect x="0" y="341" width="11" height="11" style="fill:rgb(0,0,0);" />
<rect x="66" y="341" width="11" height="11" style="fill:rgb(0,0,0);" />
<rect x="99" y="341" width="11" height="11" style="fill:rgb(0,0,0);" />
<rect x="121" y="341" width="11" height="11" style="fill:rgb(0,0,0);" />
<rect x="132" y="341" width="11" height="11" style="fill:rgb(0,0,0);" />
<rect x="176" y="341" width="11" height="11" style="fill:rgb(0,0,0);" />
<rect x="187" y="341" width="11" height="11" style="fill:rgb(0,0,0);" />
<rect x="198" y="341" width="11" height="11" style="fill:rgb(0,0,0);" />
<rect x="220" y="341" width="11" height="11" style="fill:rgb(0,0,0);" />
<rect x="242" y="341" width="11" height="11" style="fill:rgb(0,0,0);" />
<rect x="253" y="341" width="11" height="11" style="fill:rgb(0,0,0);" />
<rect x="264" y="341" width="11" height="11" style="fill:rgb(0,0,0);" />
<rect x="286" y="341" width="11" height="11" style="fill:rgb(0,0,0);" />
<rect x="308" y="341" width="11" height="11" style="fill:rgb(0,0,0);" />
<rect x="352" y="341" width="11" height="11" style="fill:rgb(0,0,0);" />
<rect x="363" y="341" width="11" height="11" style="fill:rgb(0,0,0);" />
<rect x="374" y="341" width="11" height="11" style="fill:rgb(0,0,0);" />
<rect x="0" y="352" width="11" height="11" style="fill:rgb(0,0,0);" />
<rect x="22" y="352" width="11" height="11" style="fill:rgb(0,0,0);" />
<rect x="33" y="352" width="11" height="11" style="fill:rgb(0,0,0);" />
<rect x="44" y="352" width="11" height="11" style="fill:rgb(0,0,0);" />
<rect x="66" y="352" width="11" height="11" style="fill:rgb(0,0,0);" />
<rect x="88" y="352" width="11" height="11" style="fill:rgb(0,0,0);" />
<rect x="121" y="352" width="11" height="11" style="fill:rgb(0,0,0);" />
<rect x="143" y="352" width="11" height="11" style="fill:rgb(0,0,0);" />
<rect x="198" y="352" width="11" height="11" style="fill:rgb(0,0,0);" />
<rect x="209" y="352" width="11" height="11" style="fill:rgb(0,0,0);" />
<rect x="242" y="352" width="11" height="11" style="fill:rgb(0,0,0);" />
<rect x="264" y="352" width="11" height="11" style="fill:rgb(0,0,0);" />
<rect x="275" y="352" width="11" height="11" style="fill:rgb(0,0,0);" />
<rect x="286" y="352" width="11" height="11" style="fill:rgb(0,0,0);" />
<rect x="308" y="352" width="11" height="11" style="fill:rgb(0,0,0);" />
<rect x="319" y="352" width="11" height="11" style="fill:rgb(0,0,0);" />
<rect x="330" y="352" width="11" height="11" style="fill:rgb(0,0,0);" />
<rect x="341" y="352" width="11" height="11" style="fill:rgb(0,0,0);" />
<rect x="352" y="352" width="11" height="11" style="fill:rgb(0,0,0);" />
<rect x="374" y="352" width="11" height="11" style="fill:rgb(0,0,0);" />
<rect x="0" y="363" width="11" height="11" style="fill:rgb(0,0,0);" />
<rect x="22" y="363" width="11" height="11" style="fill:rgb(0,0,0);" />
<rect x="33" y="363" width="11" height="11" style="fill:rgb(0,0,0);" />
<rect x="44" y="363" width="11" height="11" style="fill:rgb(0,0,0);" />
<rect x="66" y="363" width="11" height="11" style="fill:rgb(0,0,0);" />
<rect x="99" y="363" width="11" height="11" style="fill:rgb(0,0,0);" />
<rect x="110" y="363" width="11" height="11" style="fill:rgb(0,0,0);" />
<rect x="121" y="363" width="11" height="11" style="fill:rgb(0,0,0);" />
<rect x="143" y="363" width="11" height="11" style="fill:rgb(0,0,0);" />
<rect x="176" y="363" width="11" height="11" style="fill:rgb(0,0,0);" />
<rect x="209" y="363" width="11" height="11" style="fill:rgb(0,0,0);" />
<rect x="220" y="363" width="11" height="11" style="fill:rgb(0,0,0);" />
<rect x="319" y="363" width="11" height="11" style="fill:rgb(0,0,0);" />
<rect x="330" y="363" width="11" height="11" style="fill:rgb(0,0,0);" />
<rect x="341" y="363" width="11" height="11" style="fill:rgb(0,0,0);" />
<rect x="363" y="363" width="11" height="11" style="fill:rgb(0,0,0);" />
<rect x="385" y="363" width="11" height="11" style="fill:rgb(0,0,0);" />
<rect x="0" y="374" width="11" height="11" style="fill:rgb(0,0,0);" />
<rect x="22" y="374" width="11" height="11" style="fill:rgb(0,0,0);" />
<rect x="33" y="374" width="11" height="11" style="fill:rgb(0,0,0);" />
<rect x="44" y="374" width="11" height="11" style="fill:rgb(0,0,0);" />
<rect x="66" y="374" width="11" height="11" style="fill:rgb(0,0,0);" />
<rect x="121" y="374" width="11" height="11" style="fill:rgb(0,0,0);" />
<rect x="132" y="374" width="11" height="11" style="fill:rgb(0,0,0);" />
<rect x="154" y="374" width="11" height="11" style="fill:rgb(0,0,0);" />
<rect x="176" y="374" width="11" height="11" style="fill:rgb(0,0,0);" />
<rect x="187" y="374" width="11" height="11" style="fill:rgb(0,0,0);" />
<rect x="198" y="374" width="11" height="11" style="fill:rgb(0,0,0);" />
<rect x="220" y="374" width="11" height="11" style="fill:rgb(0,0,0);" />
<rect x="242" y="374" width="11" height="11" style="fill:rgb(0,0,0);" />
<rect x="275" y="374" width="11" height="11" style="fill:rgb(0,0,0);" />
<rect x="308" y="374" width="11" height="11" style="fill:rgb(0,0,0);" />
<rect x="330" y="374" width="11" height="11" style="fill:rgb(0,0,0);" />
<rect x="385" y="374" width="11" height="11" style="fill:rgb(0,0,0);" />
<rect x="0" y="385" width="11" height="11" style="fill:rgb(0,0,0);" />
<rect x="66" y="385" width="11" height="11" style="fill:rgb(0,0,0);" />
<rect x="99" y="385" width="11" height="11" style="fill:rgb(0,0,0);" />
<rect x="121" y="385" width="11" height="11" style="fill:rgb(0,0,0);" />
<rect x="132" y="385" width="11" height="11" style="fill:rgb(0,0,0);" />
<rect x="143" y="385" width="11" height="11" style="fill:rgb(0,0,0);" />
<rect x="187" y="385" width="11" height="11" style="fill:rgb(0,0,0);" />
<rect x="198" y="385" width="11" height="11" style="fill:rgb(0,0,0);" />
<rect x="231" y="385" width="11" height="11" style="fill:rgb(0,0,0);" />
<rect x="242" y="385" width="11" height="11" style="fill:rgb(0,0,0);" />
<rect x="264" y="385" width="11" height="11" style="fill:rgb(0,0,0);" />
<rect x="286" y="385" width="11" height="11" style="fill:rgb(0,0,0);" />
<rect x="308" y="385" width="11" height="11" style="fill:rgb(0,0,0);" />
<rect x="319" y="385" width="11" height="11" style="fill:rgb(0,0,0);" />
<rect x="341" y="385" width="11" height="11" style="fill:rgb(0,0,0);" />
<rect x="352" y="385" width="11" height="11" style="fill:rgb(0,0,0);" />
<rect x="363" y="385" width="11" height="11" style="fill:rgb(0,0,0);" />
<rect x="374" y="385" width="11" height="11" style="fill:rgb(0,0,0);" />
<rect x="385" y="385" width="11" height="11" style="fill:rgb(0,0,0);" />
<rect x="0" y="396" width="11" height="11" style="fill:rgb(0,0,0);" />
<rect x="11" y="396" width="11" height="11" style="fill:rgb(0,0,0);" />
<rect x="22" y="396" width="11" height="11" style="fill:rgb(0,0,0);" />
<rect x="33" y="396" width="11" height="11" style="fill:rgb(0,0,0);" />
<rect x="44" y="396" width="11" height="11" style="fill:rgb(0,0,0);" />
<rect x="55" y="396" width="11" height="11" style="fill:rgb(0,0,0);" />
<rect x="66" y="396" width="11" height="11" style="fill:rgb(0,0,0);" />
<rect x="88" y="396" width="11" height="11" style="fill:rgb(0,0,0);" />
<rect x="99" y="396" width="11" height="11" style="fill:rgb(0,0,0);" />
<rect x="132" y="396" width="11" height="11" style="fill:rgb(0,0,0);" />
<rect x="143" y="396" width="11" height="11" style="fill:rgb(0,0,0);" />
<rect x="165" y="396" width="11" height="11" style="fill:rgb(0,0,0);" />
<rect x="187" y="396" width="11" height="11" style="fill:rgb(0,0,0);" />
<rect x="209" y="396" width="11" height="11" style="fill:rgb(0,0,0);" />
<rect x="220" y="396" width="11" height="11" style="fill:rgb(0,0,0);" />
<rect x="231" y="396" width="11" height="11" style="fill:rgb(0,0,0);" />
<rect x="242" y="396" width="11" height="11" style="fill:rgb(0,0,0);" />
<rect x="253" y="396" width="11" height="11" style="fill:rgb(0,0,0);" />
<rect x="264" y="396" width="11" height="11" style="fill:rgb(0,0,0);" />
<rect x="319" y="396" width="11" height="11" style="fill:rgb(0,0,0);" />
<rect x="330" y="396" width="11" height="11" style="fill:rgb(0,0,0);" />
<rect x="385" y="396" width="11" height="11" style="fill:rgb(0,0,0);" />
<rect x="396" y="396" width="11" height="11" style="fill:rgb(0,0,0);" />
</svg>
